<svg width="30" height="30" viewBox="0 0 30 30" fill="none" xmlns="http://www.w3.org/2000/svg">
<g clip-path="url(#clip0_19_646)">
<path d="M15 2.8987C18.9414 2.8987 19.4082 2.91376 20.9649 2.98478C22.404 3.05046 23.1856 3.29087 23.7058 3.49302C24.3469 3.72965 24.9268 4.10696 25.403 4.59722C25.8932 5.07335 26.2705 5.65331 26.5072 6.29444C26.7093 6.81458 26.9498 7.59616 27.0154 9.03534C27.0864 10.5919 27.1015 11.0587 27.1015 15.0002C27.1015 18.9417 27.0864 19.4084 27.0154 20.965C26.9497 22.4042 26.7093 23.1857 26.5072 23.7059C26.2616 24.3425 25.8855 24.9207 25.403 25.4032C24.9205 25.8857 24.3424 26.2618 23.7058 26.5074C23.1856 26.7095 22.404 26.95 20.9649 27.0156C19.4086 27.0866 18.9418 27.1017 15 27.1017C11.0582 27.1017 10.5916 27.0866 9.03517 27.0156C7.59599 26.9499 6.81446 26.7094 6.29427 26.5074C5.65313 26.2707 5.07317 25.8934 4.59704 25.4032C4.10679 24.927 3.72948 24.3471 3.49284 23.7059C3.29069 23.1858 3.05022 22.4042 2.9846 20.965C2.91358 19.4085 2.89853 18.9417 2.89853 15.0002C2.89853 11.0587 2.91358 10.592 2.9846 9.03534C3.05028 7.59616 3.29069 6.81464 3.49284 6.29444C3.7295 5.65327 4.10685 5.0733 4.59716 4.59716C5.07329 4.10691 5.65325 3.72959 6.29438 3.49296C6.81452 3.29081 7.5961 3.05034 9.03528 2.98472C10.5918 2.9137 11.0586 2.89864 15.0001 2.89864M15.0001 0.239014C10.9913 0.239014 10.4884 0.256006 8.91423 0.327842C7.34304 0.399561 6.27007 0.649053 5.33116 1.01397C4.34624 1.38462 3.45401 1.96564 2.71671 2.71653C1.96565 3.45379 1.38446 4.34602 1.01368 5.33099C0.649053 6.26995 0.399561 7.34292 0.328135 8.91411C0.256006 10.4883 0.239014 10.9911 0.239014 15C0.239014 19.0089 0.256006 19.5117 0.328135 21.0859C0.399854 22.6571 0.649346 23.7301 1.01427 24.669C1.38491 25.6539 1.96594 26.5461 2.71683 27.2834C3.45413 28.0343 4.34635 28.6153 5.33128 28.986C6.27024 29.3509 7.34321 29.6004 8.91435 29.6721C10.4888 29.744 10.9914 29.7609 15.0002 29.7609C19.0091 29.7609 19.512 29.744 21.0861 29.6721C22.6573 29.6004 23.7303 29.3509 24.6692 28.986C25.6498 28.6067 26.5403 28.0268 27.2837 27.2834C28.0271 26.54 28.607 25.6495 28.9862 24.669C29.3511 23.73 29.6006 22.657 29.6724 21.0859C29.7442 19.5115 29.7612 19.0088 29.7612 15C29.7612 10.9912 29.7442 10.4883 29.6724 8.91411C29.6006 7.34292 29.3511 6.26995 28.9862 5.33104C28.6156 4.34612 28.0346 3.45389 27.2837 2.71659C26.5463 1.96555 25.6541 1.3844 24.669 1.01368C23.7301 0.649053 22.6571 0.399561 21.0859 0.328135C19.5117 0.256006 19.0089 0.239014 15 0.239014H15.0001Z" fill="black"/>
<path d="M15 7.41992C13.5008 7.41992 12.0353 7.86448 10.7888 8.69738C9.54229 9.53028 8.57075 10.7141 7.99704 12.0992C7.42333 13.4842 7.27322 15.0083 7.56569 16.4787C7.85817 17.9491 8.58009 19.2997 9.64017 20.3598C10.7003 21.4198 12.0509 22.1418 13.5212 22.4342C14.9916 22.7267 16.5157 22.5766 17.9008 22.0029C19.2858 21.4292 20.4697 20.4576 21.3026 19.2111C22.1355 17.9646 22.58 16.4991 22.58 14.9999C22.58 12.9896 21.7814 11.0616 20.3599 9.64005C18.9384 8.21852 17.0104 7.41992 15 7.41992ZM15 19.9202C14.0269 19.9202 13.0756 19.6316 12.2665 19.0909C11.4573 18.5503 10.8267 17.7818 10.4543 16.8828C10.0819 15.9837 9.98448 14.9944 10.1743 14.04C10.3642 13.0855 10.8328 12.2088 11.5209 11.5207C12.2091 10.8326 13.0858 10.364 14.0402 10.1741C14.9946 9.9843 15.984 10.0817 16.883 10.4541C17.7821 10.8266 18.5505 11.4572 19.0912 12.2663C19.6318 13.0755 19.9204 14.0268 19.9204 14.9999C19.9204 16.3048 19.402 17.5563 18.4792 18.4791C17.5565 19.4018 16.305 19.9202 15 19.9202Z" fill="black"/>
<path d="M22.8794 8.89194C23.8577 8.89194 24.6507 8.09891 24.6507 7.12065C24.6507 6.1424 23.8577 5.34937 22.8794 5.34937C21.9012 5.34937 21.1082 6.1424 21.1082 7.12065C21.1082 8.09891 21.9012 8.89194 22.8794 8.89194Z" fill="black"/>
</g>
<defs>
<clipPath id="clip0_19_646">
<rect width="30" height="30" fill="white"/>
</clipPath>
</defs>
</svg>
