<svg width="44" height="44" viewBox="0 0 44 44" fill="none" xmlns="http://www.w3.org/2000/svg">
<path fill-rule="evenodd" clip-rule="evenodd" d="M13.1842 39.6565L12.7653 29.1077L17.5098 28.9179C19.5365 29.1972 21.5882 30.2106 23.6507 31.3958L27.3353 31.249C29.0075 31.2848 29.9492 32.9391 28.3701 34.1136C27.1169 35.1126 25.4089 35.1269 23.6543 35.0374C22.4476 35.0266 22.4583 36.6487 23.7152 36.6022C24.152 36.6201 24.6247 36.4983 25.0365 36.4804C27.2171 36.3909 28.9967 35.9039 30.028 34.1351L30.5293 32.8245L35.904 29.8883C38.611 28.875 40.4336 31.428 38.4928 33.5048C34.6364 36.552 30.9017 39.3307 26.8125 41.4147C23.862 43.3733 20.8327 43.4342 17.7389 41.7763L13.1842 39.6565ZM10.6491 23.5826H43.556C43.7995 23.5826 44 23.7867 44 24.0267V25.9638C44 26.2037 43.7995 26.4078 43.556 26.4078H10.6491C10.4056 26.4078 10.2051 26.2073 10.2051 25.9638V24.0267C10.2051 23.7832 10.4056 23.5826 10.6491 23.5826ZM28.3809 5.05595C37.39 5.77568 44.9775 13.3489 43.8568 22.2649H10.3519C9.24544 13.2916 16.8617 5.70764 25.9352 5.04521V3.59143H24.5029C24.2523 3.59143 24.0446 3.38375 24.0446 3.1331V1.49312C24.0446 1.24247 24.2487 1.03479 24.5029 1.03479H29.7738C30.0244 1.03479 30.2321 1.24247 30.2321 1.49312V3.1331C30.2321 3.38375 30.0244 3.59143 29.7738 3.59143H28.3809V5.05595ZM0 28.7461L11.2972 28.1517L11.7985 40.7737L0.501302 41.3645L0 28.7461Z" fill="white"/>
</svg>
