<svg width="24" height="14" viewBox="0 0 24 14" fill="none" xmlns="http://www.w3.org/2000/svg">
<path d="M10.5 11.6667H22.1667C22.4761 11.6667 22.7729 11.7896 22.9917 12.0084C23.2105 12.2272 23.3334 12.5239 23.3334 12.8333C23.3334 13.1428 23.2105 13.4395 22.9917 13.6583C22.7729 13.8771 22.4761 14 22.1667 14H10.5C10.1906 14 9.89388 13.8771 9.67508 13.6583C9.45629 13.4395 9.33337 13.1428 9.33337 12.8333C9.33337 12.5239 9.45629 12.2272 9.67508 12.0084C9.89388 11.7896 10.1906 11.6667 10.5 11.6667ZM22.1667 2.33333H1.16671C0.857288 2.33333 0.560541 2.21042 0.341749 1.99162C0.122957 1.77283 4.19617e-05 1.47609 4.19617e-05 1.16667C4.19617e-05 0.857247 0.122957 0.560501 0.341749 0.341709C0.560541 0.122917 0.857288 0 1.16671 0H22.1667C22.4761 0 22.7729 0.122917 22.9917 0.341709C23.2105 0.560501 23.3334 0.857247 23.3334 1.16667C23.3334 1.47609 23.2105 1.77283 22.9917 1.99162C22.7729 2.21042 22.4761 2.33333 22.1667 2.33333ZM1.16671 5.83333H22.1667C22.4761 5.83333 22.7729 5.95625 22.9917 6.17504C23.2105 6.39383 23.3334 6.69058 23.3334 7C23.3334 7.30942 23.2105 7.60616 22.9917 7.82496C22.7729 8.04375 22.4761 8.16667 22.1667 8.16667H1.16671C0.857288 8.16667 0.560541 8.04375 0.341749 7.82496C0.122957 7.60616 4.19617e-05 7.30942 4.19617e-05 7C4.19617e-05 6.69058 0.122957 6.39383 0.341749 6.17504C0.560541 5.95625 0.857288 5.83333 1.16671 5.83333Z" fill="#2B2626"/>
</svg>
